<svg width="24" height="24" viewBox="0 0 24 24" fill="none" xmlns="http://www.w3.org/2000/svg">
<path d="M22.6 2.1C22.5 1.8 22.2 1.5 21.9 1.4C17.7 0.300004 13.4 1.6 10.5 5L9.40005 6.3L6.70005 5.7C5.40005 5.2 4.00005 5.8 3.40005 7L1.20005 10.9C1.00005 11.2 1.00005 11.5 1.20005 11.8C1.30005 12.1 1.60005 12.3 1.90005 12.4L5.00005 13.1C4.70005 13.9 4.60005 14.7 4.40005 15.5C4.40005 15.8 4.50005 16.1 4.70005 16.3L7.80005 19.4C8.00005 19.6 8.20005 19.7 8.50005 19.7H8.60005C9.50005 19.6 10.3 19.5 11.1 19.2L11.7 22.2C11.8 22.5 12 22.8 12.3 22.9C12.4 23 12.6 23 12.7 23C12.9 23 13 23 13.2 22.9L17.1 20.7C18.2 20.1 18.8 18.7 18.5 17.4L17.8 14.6L19 13.5C22.3 10.7 23.7 6.2 22.6 2.1ZM7.30005 8.8C6.70005 9.6 6.10005 10.4 5.70005 11.2L3.60005 10.7L5.10005 8C5.30005 7.6 5.70005 7.5 6.20005 7.6L7.90005 8L7.30005 8.8ZM16 18.9L13.3 20.4L12.9 18.4C13.8 18 14.6 17.4 15.3 16.8L16 16.1L16.4 17.8C16.6 18.3 16.3 18.8 16 18.9ZM16.7 8.8C15.9 8.8 15.2 8.1 15.2 7.3C15.2 6.5 15.9 5.8 16.7 5.8C17.5 5.8 18.2001 6.5 18.2001 7.3C18.2001 8.1 17.6 8.8 16.7 8.8Z" fill="white"/>
</svg>
