<svg width="24" height="24" viewBox="0 0 24 24" fill="none" xmlns="http://www.w3.org/2000/svg">
<path fill-rule="evenodd" clip-rule="evenodd" d="M11.5 2.9C9.78789 2.9 8.39998 4.28792 8.39998 6V8.1H14.6V6C14.6 4.28792 13.2121 2.9 11.5 2.9ZM16.4 8.1V6C16.4 3.2938 14.2062 1.1 11.5 1.1C8.79378 1.1 6.59998 3.2938 6.59998 6V8.1H4.99998C3.95063 8.1 3.09998 8.95066 3.09998 10V21C3.09998 22.0493 3.95063 22.9 4.99998 22.9H18C19.0493 22.9 19.9 22.0493 19.9 21V10C19.9 8.95066 19.0493 8.1 18 8.1H16.4ZM4.99998 9.9C4.94475 9.9 4.89998 9.94477 4.89998 10V21C4.89998 21.0552 4.94475 21.1 4.99998 21.1H18C18.0552 21.1 18.1 21.0552 18.1 21V10C18.1 9.94477 18.0552 9.9 18 9.9H15.5H7.49998H4.99998ZM8.49998 12C8.49998 12.5523 8.05226 13 7.49998 13C6.94769 13 6.49998 12.5523 6.49998 12C6.49998 11.4477 6.94769 11 7.49998 11C8.05226 11 8.49998 11.4477 8.49998 12ZM15.5 13C16.0523 13 16.5 12.5523 16.5 12C16.5 11.4477 16.0523 11 15.5 11C14.9477 11 14.5 11.4477 14.5 12C14.5 12.5523 14.9477 13 15.5 13Z" fill="#1E1E1E"/>
</svg>
