<svg width="25" height="24" viewBox="0 0 25 24" fill="none" xmlns="http://www.w3.org/2000/svg">
<path d="M22.0422 11.7424C22.0422 17.1231 17.6469 21.4849 12.224 21.4849C10.5025 21.4849 8.88513 21.0449 7.47801 20.2727L2.04224 22L3.81446 16.7729C2.92046 15.3049 2.40557 13.5831 2.40557 11.7424C2.40557 6.36178 6.80135 2 12.224 2C17.6473 2 22.0422 6.36178 22.0422 11.7424ZM12.224 3.55156C7.67201 3.55156 3.96935 7.226 3.96935 11.7424C3.96935 13.5347 4.55357 15.1944 5.54179 16.5447L4.51046 19.5867L7.68268 18.5784C8.98601 19.4342 10.5473 19.9333 12.2242 19.9333C16.7756 19.9333 20.4789 16.2593 20.4789 11.7429C20.4789 7.22644 16.7758 3.55156 12.224 3.55156ZM17.182 13.9862C17.1213 13.8869 16.9611 13.8269 16.7207 13.7076C16.4798 13.5882 15.2962 13.0102 15.0762 12.9309C14.8556 12.8513 14.6947 12.8113 14.5345 13.0502C14.3742 13.2893 13.9129 13.8269 13.7722 13.9862C13.6318 14.146 13.4916 14.166 13.2507 14.0464C13.0102 13.9271 12.2349 13.6747 11.3156 12.8613C10.6002 12.2284 10.1171 11.4471 9.97668 11.2078C9.83646 10.9689 9.96201 10.8398 10.0822 10.7209C10.1907 10.6138 10.3231 10.442 10.4433 10.3027C10.564 10.1631 10.604 10.0638 10.6838 9.90422C10.7645 9.74489 10.7242 9.60556 10.6638 9.48578C10.6038 9.36644 10.122 8.19133 9.92157 7.71311C9.72113 7.23533 9.5209 7.31489 9.38024 7.31489C9.24001 7.31489 9.07935 7.29489 8.9189 7.29489C8.75846 7.29489 8.49757 7.35467 8.2769 7.59356C8.05646 7.83267 7.4349 8.41044 7.4349 9.58533C7.4349 10.7604 8.2969 11.8958 8.41757 12.0549C8.53779 12.214 10.082 14.7038 12.5287 15.66C14.9756 16.6158 14.9756 16.2969 15.4169 16.2569C15.8578 16.2171 16.8405 15.6793 17.0418 15.122C17.2418 14.5638 17.2418 14.0858 17.182 13.9862Z" fill="#00B377"/>
</svg>
