<svg width="492" height="492" viewBox="0 0 492 492" fill="none" xmlns="http://www.w3.org/2000/svg">
<g clip-path="url(#clip0_116_92)">
<path d="M140.334 199.948L85.7637 240.416H358.184L303.314 199.948H140.334Z" fill="#E4EBF7"/>
<path d="M303.314 240.379L358.185 240.416L303.314 199.948V240.379Z" fill="#A3B5D6"/>
<path d="M132.376 128.022L178.888 394.255C179.952 400.349 185.764 404.435 191.858 403.365L212.568 399.749C218.662 398.679 222.748 392.873 221.678 386.779L175.172 120.546L132.376 128.022Z" fill="#FFA940"/>
<path d="M138.652 82.8562L132.383 128.048L175.172 120.571L155.144 79.9781L138.652 82.8562Z" fill="#FFE7BA"/>
<path d="M143.563 63.0407C143.187 63.1033 142.887 63.4036 142.818 63.779L139.177 82.793L154.818 80.0588L144.532 63.4662C144.357 63.1909 144.057 63.022 143.738 63.022C143.675 63.022 143.619 63.0282 143.563 63.0407Z" fill="#253368"/>
<path d="M145.29 125.921L193.704 403.046L211.172 399.993L162.764 122.861L145.29 125.921Z" fill="#FE9921"/>
<path d="M204.841 382.067L204.102 403.271C203.871 409.828 209.001 415.327 215.558 415.552C222.115 415.784 227.615 410.654 227.846 404.103L228.578 382.893L204.847 382.067H204.841Z" fill="#253368"/>
<path d="M226.576 64.7299L225.268 72.2316C224.98 73.8708 226.088 75.4412 227.727 75.7228C229.372 76.0106 230.936 74.9094 231.224 73.2639L232.532 65.7622C232.82 64.1167 231.719 62.5525 230.073 62.2647C229.898 62.2397 229.723 62.2209 229.547 62.2209C228.108 62.2209 226.832 63.2533 226.576 64.7299Z" fill="#50548B"/>
<path d="M160.38 362.565C159.31 368.665 163.402 374.472 169.502 375.535L181.784 377.675C187.884 378.732 193.691 374.653 194.748 368.553L239.646 110.779L205.272 104.791L160.38 362.565Z" fill="#597EF7"/>
<path d="M223.528 72.1691L205.271 104.791L239.664 110.785L232.957 73.7833C232.813 73.0075 232.2 72.3943 231.418 72.2692L225.486 71.2368C225.38 71.218 225.274 71.2118 225.167 71.2118C224.498 71.2118 223.866 71.5684 223.528 72.1691Z" fill="#E4EBF7"/>
<path d="M80.221 99.6675L68.3959 107.889C67.0445 108.827 66.544 110.592 67.2009 112.099L74.371 128.517C75.1281 130.269 77.1677 131.063 78.9196 130.3L91.8646 124.65C93.6165 123.881 94.4173 121.847 93.654 120.095L85.3702 101.113C84.9573 100.168 84.1376 99.4548 83.1366 99.1732C82.8363 99.0919 82.5172 99.0481 82.2106 99.0481C81.5036 99.0481 80.8154 99.2546 80.221 99.6675Z" fill="#FF7946"/>
<path d="M78.2246 175.091L167.87 380.472L216.365 359.306L126.72 153.925L78.2246 175.091Z" fill="#FF7946"/>
<path d="M78.2246 175.091L86.0767 193.067L134.572 171.907L126.72 153.925L78.2246 175.091Z" fill="#253368"/>
<path d="M72.1995 125.582L73.4007 164.023L78.2246 175.091L126.72 153.925L121.927 142.944L93.0216 116.491L72.1995 125.582Z" fill="#E4EBF7"/>
<path d="M73.3884 164.216L78.2186 175.278L126.708 154.106L121.877 143.05L73.3884 164.216Z" fill="#F5F5F5"/>
<path d="M137.693 212.718L111.966 214.495C111.328 214.539 110.746 214.896 110.414 215.446C110.077 215.991 110.033 216.673 110.289 217.267L110.458 217.649C110.796 218.418 111.578 218.894 112.417 218.831L121.082 218.193C121.92 218.13 122.709 218.612 123.047 219.382L125.249 224.431C127.971 230.669 132.45 233.503 138.513 232.946C144.576 232.396 146.265 229.061 143.631 223.023L139.646 213.907C139.326 213.181 138.607 212.718 137.819 212.718C137.781 212.718 137.737 212.718 137.693 212.718ZM132.256 227.816C131.13 227.027 130.123 225.707 129.316 223.855L127.783 220.345C127.526 219.757 127.57 219.081 127.902 218.531C128.233 217.98 128.815 217.624 129.453 217.58L135.31 217.148C136.148 217.092 136.93 217.561 137.268 218.331L139.32 223.042C140.109 224.838 140.284 226.227 139.902 227.134C139.514 228.041 138.476 228.61 136.68 228.767C136.386 228.792 136.085 228.804 135.804 228.804C134.396 228.804 133.189 228.479 132.256 227.816Z" fill="white"/>
<path d="M147.699 235.749L122.259 238.183C121.633 238.246 121.064 238.602 120.745 239.147C120.42 239.691 120.382 240.36 120.626 240.936L127.371 256.384C127.721 257.178 128.547 257.654 129.41 257.554C130.03 257.485 130.587 257.116 130.9 256.578C131.212 256.033 131.25 255.376 130.993 254.801L126.614 244.753C126.37 244.171 126.407 243.508 126.726 242.963C127.045 242.425 127.609 242.062 128.234 242.006L133.052 241.568C133.903 241.487 134.704 241.956 135.048 242.738L139.721 253.437C140.072 254.231 140.904 254.713 141.767 254.619C142.387 254.544 142.937 254.175 143.256 253.631C143.563 253.093 143.601 252.43 143.35 251.854L139.696 243.483C139.446 242.901 139.49 242.237 139.809 241.699C140.128 241.161 140.691 240.798 141.317 240.736L145.371 240.329C146.222 240.248 147.029 240.711 147.373 241.493L152.335 252.849C152.685 253.65 153.511 254.119 154.374 254.019C155 253.944 155.557 253.581 155.864 253.03C156.176 252.473 156.208 251.81 155.939 251.235L149.688 236.919C149.369 236.194 148.662 235.737 147.886 235.737C147.824 235.737 147.761 235.743 147.699 235.749Z" fill="white"/>
<path d="M86.4844 289.813V420.176C86.4844 425.801 91.0455 430.362 96.6702 430.362H347.868C353.493 430.362 358.054 425.801 358.054 420.176V289.813H86.4844Z" fill="#FF3B78"/>
<path d="M86.4829 260.081V336.037L358.053 314.376V260.081H86.4829Z" fill="#DD2D64"/>
<g clip-path="url(#clip1_116_92)">
<path d="M241.988 257.079C258.438 266.576 279.765 260.468 289.593 243.445L307.398 212.607L277.597 195.402C261.148 185.904 239.821 192.012 229.992 209.035C220.164 226.058 225.538 247.581 241.988 257.079Z" fill="#0ACF83"/>
<path d="M301.391 85.3695C311.252 68.2893 332.606 62.135 349.056 71.6323L378.856 88.8374L343.127 150.722L313.326 133.517C296.877 124.02 291.53 102.45 301.391 85.3695Z" fill="#F24E1E"/>
<path d="M378.856 88.8374L408.656 106.043C425.106 115.54 430.453 137.11 420.592 154.19C410.731 171.27 389.377 177.425 372.927 167.927L343.127 150.722L378.856 88.8374Z" fill="#FF7262"/>
<path d="M384.982 215.867C375.121 232.947 353.767 239.102 337.318 229.604C320.868 220.107 315.521 198.537 325.382 181.457C335.243 164.377 356.597 158.222 373.047 167.72C389.496 177.217 394.844 198.787 384.982 215.867Z" fill="#1ABCFE"/>
<path d="M265.782 147.046C275.643 129.966 296.997 123.812 313.446 133.309L343.247 150.514L307.517 212.399L277.717 195.194C261.268 185.697 255.92 164.127 265.782 147.046Z" fill="#A259FF"/>
</g>
<path d="M85.7825 240.417L59.2856 298.71C58.2783 300.818 58.416 303.29 59.6548 305.267C60.8998 307.238 63.0709 308.439 65.3984 308.445H378.137C380.521 308.445 382.736 307.194 383.962 305.148C385.188 303.102 385.257 300.562 384.143 298.466L358.185 240.417H85.7825Z" fill="#E4EBF7"/>
</g>
<defs>
<clipPath id="clip0_116_92">
<rect width="492" height="492" fill="white"/>
</clipPath>
<clipPath id="clip1_116_92">
<rect width="244.726" height="244.726" fill="white" transform="translate(280.542 14.4141) rotate(30)"/>
</clipPath>
</defs>
</svg>
