<svg width="158" height="158" viewBox="0 0 158 158" fill="none" xmlns="http://www.w3.org/2000/svg">
<path fill-rule="evenodd" clip-rule="evenodd" d="M79.1028 105.409C64.657 105.409 52.9463 93.6984 52.9463 79.2527C52.9463 64.8069 64.657 53.0963 79.1028 53.0963C93.5485 53.0963 105.259 64.8069 105.259 79.2527C105.259 93.6984 93.5485 105.409 79.1028 105.409ZM157.603 91.0846V67.4205L138.952 62.6816C137.584 57.7299 135.619 53.0268 133.138 48.6544L142.977 32.1113L126.244 15.3782L109.701 25.2177C105.328 22.7361 100.625 20.771 95.6738 19.403L90.9347 0.752686H67.2706L62.5317 19.403C57.58 20.771 52.8769 22.7361 48.5045 25.2177L31.9614 15.3782L15.2283 32.1113L25.0675 48.6544C22.5865 53.0268 20.6211 57.7302 19.2532 62.6816L0.602783 67.4205V91.0846L19.2532 95.8237C20.6211 100.775 22.5865 105.478 25.0675 109.851L15.2283 126.394L31.9614 143.127L48.5045 133.288C52.8769 135.769 57.58 137.734 62.5317 139.102L67.2706 157.753H90.9347L95.6738 139.102C100.625 137.734 105.328 135.769 109.701 133.288L126.244 143.127L142.977 126.394L133.138 109.851C135.619 105.478 137.584 100.775 138.952 95.8237L157.603 91.0846Z" fill="#A259FF"/>
</svg>
