<svg width="352" height="344" viewBox="0 0 352 344" fill="none" xmlns="http://www.w3.org/2000/svg">
<path fill-rule="evenodd" clip-rule="evenodd" d="M351.552 36.3619H52.3259V10.8907C52.3259 5.36538 57.0415 0.88562 62.8575 0.88562H341.02C346.837 0.88562 351.552 5.36538 351.552 10.8907V36.3619Z" fill="#2C2C35"/>
<path fill-rule="evenodd" clip-rule="evenodd" d="M341.02 294.732H62.8575C57.0415 294.732 52.3259 290.046 52.3259 284.264V35.028H351.552V284.264C351.552 290.046 346.837 294.732 341.02 294.732Z" fill="#E4EBF7"/>
<path fill-rule="evenodd" clip-rule="evenodd" d="M76.8748 18.5257C76.8748 22.1185 73.9437 25.0315 70.3281 25.0315C66.7129 25.0315 63.7822 22.1185 63.7822 18.5257C63.7822 14.9329 66.7129 12.0199 70.3281 12.0199C73.9437 12.0199 76.8748 14.9329 76.8748 18.5257Z" fill="#FD4438"/>
<path fill-rule="evenodd" clip-rule="evenodd" d="M99.7868 18.5257C99.7868 22.1185 96.856 25.0315 93.2403 25.0315C89.625 25.0315 86.6942 22.1185 86.6942 18.5257C86.6942 14.9329 89.625 12.0199 93.2403 12.0199C96.856 12.0199 99.7868 14.9329 99.7868 18.5257Z" fill="#FFB443"/>
<path fill-rule="evenodd" clip-rule="evenodd" d="M125.972 18.5257C125.972 22.1185 123.041 25.0315 119.425 25.0315C115.81 25.0315 112.879 22.1185 112.879 18.5257C112.879 14.9329 115.81 12.0199 119.425 12.0199C123.041 12.0199 125.972 14.9329 125.972 18.5257Z" fill="#24CA49"/>
<path fill-rule="evenodd" clip-rule="evenodd" d="M85.0636 260.867C83.2523 260.867 81.7845 259.398 81.7845 257.586V67.348C81.7845 65.5357 83.2523 64.0664 85.0636 64.0664H322.355C324.166 64.0664 325.634 65.5357 325.634 67.348V257.586C325.634 259.398 324.166 260.867 322.355 260.867H85.0636Z" fill="white"/>
<path fill-rule="evenodd" clip-rule="evenodd" d="M222.164 180.322V232.112C222.164 235.036 219.758 237.431 216.819 237.431H116.664C113.725 237.431 111.317 235.036 111.317 232.112V180.322C111.317 177.396 113.725 175.003 116.664 175.003H216.819C219.758 175.003 222.164 177.396 222.164 180.322Z" fill="#11BDB8"/>
<path fill-rule="evenodd" clip-rule="evenodd" d="M298.191 148.493C298.191 151.417 295.786 153.812 292.847 153.812H116.664C113.725 153.812 111.317 151.417 111.317 148.493V96.7003C111.317 93.7762 113.725 91.3837 116.664 91.3837H292.847C295.786 91.3837 298.191 93.7762 298.191 96.7003V148.493Z" fill="#A259FF"/>
<path fill-rule="evenodd" clip-rule="evenodd" d="M298.061 232.112C298.061 235.036 295.655 237.431 292.716 237.431H247.182C244.242 237.431 241.837 235.036 241.837 232.112V180.322C241.837 177.396 244.242 175.003 247.182 175.003H292.716C295.655 175.003 298.061 177.396 298.061 180.322V232.112Z" fill="#FFB443"/>
<mask id="mask0_95_45" style="mask-type:alpha" maskUnits="userSpaceOnUse" x="0" y="185" width="130" height="159">
<path d="M0.991211 185H129.647V343.757H0.991211V185Z" fill="white"/>
</mask>
<g mask="url(#mask0_95_45)">
<path fill-rule="evenodd" clip-rule="evenodd" d="M100.731 185H29.9074C27.6036 185 25.68 186.711 25.3574 188.991C23.2522 203.874 9.68153 211.525 3.75421 214.106C2.07951 214.835 0.991211 216.481 0.991211 218.308V278.871C0.991211 318.503 65.3191 343.757 65.3191 343.757C65.3191 343.757 129.647 318.503 129.647 278.871V218.308C129.647 216.481 128.558 214.835 126.884 214.106C120.956 211.525 107.386 203.874 105.281 188.991C104.958 186.711 103.034 185.191 100.731 185.191V185Z" fill="#E2C9FF"/>
</g>
<path fill-rule="evenodd" clip-rule="evenodd" d="M94.7766 196.799C95.6494 199.496 96.818 202.098 98.2744 204.582C100.415 208.233 103.186 211.636 106.51 214.696C110.238 218.128 114.177 220.695 117.601 222.551V278.543C117.601 293.7 103.086 307.124 90.9087 315.717C81.0094 322.702 70.9274 327.722 65.311 330.291C59.7853 327.768 49.9283 322.864 40.0853 315.967C31.7569 310.132 25.2094 304.112 20.6244 298.075C18.1284 294.789 16.2235 291.492 14.9627 288.279C13.6666 284.975 13.0364 281.791 13.0364 278.543V222.551C16.46 220.695 20.4002 218.128 24.1276 214.696C27.4513 211.636 30.2222 208.233 32.3632 204.582C33.8196 202.098 34.9882 199.496 35.8612 196.799H94.7766Z" fill="#A259FF"/>
<path fill-rule="evenodd" clip-rule="evenodd" d="M68.404 228.311L47.2598 260.395C46.1222 262.134 47.3454 264.273 49.3964 264.273H58.8676L47.2227 286.189C46.3539 287.96 48.5924 289.604 49.9652 288.202L81.6367 256.5C83.2529 254.851 82.1067 252.033 79.8198 252.033H65.4972L71.4889 229.704C71.9568 227.804 69.4703 226.681 68.404 228.311Z" fill="white"/>
</svg>
